Coordinates
version=1
nRows=21
nColumns=33
inDegrees=yes

Units are S.I. units (second, meters, Newtons, ...)
Angles are in degrees.

endheader
time	ground_thorax_rot_x	ground_thorax_rot_y	ground_thorax_rot_z	ground_thorax_tx	ground_thorax_ty	ground_thorax_tz	clav_prot_r	clav_elev_r	scapula_abduction_r	scapula_elevation_r	scapula_upward_rot_r	scapula_winging_r	shoulder_elv_r	plane_of_elev_r	axial_rot_r	elbow_flexion_r	pro_sup_r	wrist_flex_r	wrist_dev_r	clav_prot_l	clav_elev_l	scapula_abduction_l	scapula_elevation_l	scapula_upward_rot_l	scapula_winging_l	shoulder_elv_l	plane_of_elev_l	axial_rot_l	elbow_flexion_l	pro_sup_l	wrist_flex_l	wrist_dev_l
      1.38000000	     24.74992637	     49.07669551	     -4.85870003	      0.03611077	      1.01327172	     -0.06562542	    -28.20953845	     16.30494694	    -20.67502830	      9.13565398	     45.00000000	    -16.91870761	     53.15146080	    -65.47170241	     65.95439666	     68.49412582	    -34.87516381	      8.53778945	      0.71350899	     25.70974827	    -31.97654767	    -45.00000000	      5.84899693	    -38.66899362	      8.20412112	     57.89418885	     21.78029101	     -7.12232619	     28.10269521	      6.99936830	     39.56930193	     -4.02385495
      1.39000000	     24.85503072	     49.10261408	     -5.01337882	      0.03631368	      1.01269909	     -0.06603944	    -27.96235195	     16.71375703	    -20.50468830	      9.48101003	     45.00000000	    -16.81951925	     50.90130354	    -64.96311664	     64.10679655	     67.08707017	    -35.96555533	      8.56588554	      1.19892508	     25.70430854	    -32.19445918	    -45.00000000	      5.83573998	    -39.19647263	      8.06257453	     58.01513595	     22.94694582	     -6.10078237	     26.50813569	      7.18714719	     39.81286753	     -3.65922643
      1.40000000	     24.61751734	     49.24443276	     -4.84297578	      0.03665853	      1.01328582	     -0.06622923	    -27.91798236	     16.37304095	    -20.22376651	      9.21760699	     45.00000000	    -16.78710829	     50.22120099	    -64.71595875	     63.89300044	     65.90334982	    -36.15176306	      8.20764835	      1.19418771	     25.77415083	    -32.53442490	    -45.00000000	      6.11365060	    -39.22488507	      7.79545834	     58.05098442	     22.91955534	     -5.56538522	     25.48103208	      7.26119053	     39.40716925	     -3.52928528
      1.41000000	     24.76271190	     49.24306883	     -4.95008172	      0.03677421	      1.01248733	     -0.06647015	    -27.59515163	     16.99258881	    -20.05244944	      9.73756190	     45.00000000	    -16.65711083	     47.65225893	    -64.19981699	     61.73239424	     64.45795741	    -37.34168498	      8.20798747	      1.62207188	     25.73518664	    -32.78496534	    -45.00000000	      5.99359438	    -40.11489910	      7.64137110	     58.51411960	     24.22973934	     -4.40906224	     23.98319034	      7.31051331	     39.54859130	     -3.02994041
      1.42000000	     24.72043113	     49.41897310	     -4.96581027	      0.03718627	      1.01276924	     -0.06689940	    -27.48524235	     16.74354546	    -19.71199541	      9.55169981	     45.00000000	    -16.60427273	     47.28271475	    -64.04286883	     61.81164362	     63.41967419	    -37.37820366	      7.80631450	      1.56180749	     25.80455845	    -33.10166400	    -45.00000000	      6.26551380	    -40.10831060	      7.39278514	     58.55602502	     24.20739766	     -4.35829565	     23.23093556	      7.43381318	     39.34584434	     -2.84806041
      1.43000000	     24.71347554	     49.44704377	     -4.97729780	      0.03730643	      1.01250224	     -0.06682972	    -27.32496419	     17.16090351	    -19.69470151	      9.89701459	     45.00000000	    -16.53922797	     44.82288881	    -63.43221886	     59.69827770	     61.94159347	    -38.41878474	      7.75414996	      2.05619665	     25.76851551	    -33.40512804	    -45.00000000	      6.18348344	    -41.02069964	      7.19337573	     59.12157251	     25.38150253	     -2.61381631	     21.56915899	      7.18998840	     39.08901692	     -2.29955997
      1.44000000	     24.58485927	     49.56810355	     -4.90597489	      0.03757299	      1.01294963	     -0.06723483	    -27.24143885	     16.87098858	    -19.37225304	      9.67595979	     45.00000000	    -16.49943923	     44.37729998	    -63.23960936	     59.64664073	     60.89020933	    -38.48202405	      7.33945845	      1.97690814	     25.83142265	    -33.70973777	    -45.00000000	      6.42677057	    -41.06291019	      6.95347921	     59.21582677	     25.31865056	     -2.45415130	     20.79011226	      7.25852645	     38.85013399	     -2.13078046
      1.45000000	     24.41669178	     49.78299644	     -4.93342592	      0.03801164	      1.01342622	     -0.06726649	    -27.31164641	     16.64382185	    -19.35439737	      9.48989999	     45.00000000	    -16.52370588	     43.31011772	    -62.83973430	     59.05742711	     59.66526591	    -38.85437304	      7.06661481	      2.22922866	     25.86846799	    -33.95810790	    -45.00000000	      6.58112405	    -41.21766011	      6.76016039	     59.35639695	     25.61233558	     -1.32863403	     19.67730919	      7.03176136	     38.36762736	     -1.93006854
      1.46000000	     24.57440601	     49.71468062	     -4.87252473	      0.03795499	      1.01238092	     -0.06722611	    -26.78565947	     17.62567918	    -19.05999354	     10.31664164	     45.00000000	    -16.30591055	     40.36900881	    -62.36315466	     56.59422223	     58.16436182	    -40.14623328	      7.01055401	      2.39658332	     25.72582761	    -34.27719550	    -45.00000000	      6.22228926	    -42.90996667	      6.58153644	     60.69579904	     27.04560243	     -0.10298121	     18.53961172	      6.32898689	     38.33832808	     -1.06766587
      1.47000000	     24.52791802	     49.87160975	     -4.91657990	      0.03828285	      1.01283769	     -0.06755391	    -26.73921782	     17.33638505	    -18.79492290	     10.09258182	     45.00000000	    -16.28650580	     40.00492832	    -62.19256918	     56.58443680	     57.18262613	    -40.20719468	      6.64476183	      2.33824993	     25.78309717	    -34.52576151	    -45.00000000	      6.43699628	    -42.90685063	      6.38070655	     60.78424516	     26.98544221	      0.00620434	     17.91066983	      6.36823171	     38.12664094	     -0.92432985
      1.48000000	     24.55490763	     50.11900645	     -5.08016877	      0.03868261	      1.01315862	     -0.06787131	    -26.69841332	     17.13282010	    -18.59888757	      9.93551187	     45.00000000	    -16.26933961	     39.54042299	    -62.02038556	     56.59312009	     56.16772214	    -40.32817251	      6.33183735	      2.37868616	     25.82890558	    -34.73549755	    -45.00000000	      6.60957793	    -42.92538564	      6.21056988	     60.88459191	     27.04039880	      0.16422886	     17.32985401	      6.34579997	     37.88165119	     -0.80018844
      1.49000000	     24.55115491	     50.04368822	     -5.08788444	      0.03879330	      1.01284480	     -0.06781588	    -26.48065539	     17.68620631	    -18.56833906	     10.39511066	     45.00000000	    -16.17538328	     37.16087161	    -61.07106463	     55.11089061	     54.37892881	    -41.91136049	      6.71619397	      2.91576906	     25.68248417	    -34.80116406	    -45.00000000	      6.23999744	    -44.07373192	      6.20546958	     61.75473686	     28.14148191	      1.32789222	     16.36256248	      5.17008354	     37.18384110	     -0.67917467
      1.50000000	     24.73153705	     50.38175165	     -5.22005198	      0.03943580	      1.01310231	     -0.06796125	    -26.49108454	     17.53701206	    -18.49144236	     10.27585457	     45.00000000	    -16.18041813	     37.07335285	    -61.18715014	     55.06456219	     53.70814641	    -41.94756614	      6.48278433	      2.79826477	     25.68165869	    -34.89503073	    -45.00000000	      6.26384601	    -44.22551934	      6.13339704	     61.67726046	     28.18443228	      1.29218763	     16.28426547	      5.14256978	     37.14300495	     -0.68217260
      1.51000000	     24.69728253	     50.43625752	     -5.24829527	      0.03931554	      1.01311694	     -0.06638436	    -26.19396573	     18.28941255	    -18.45755645	     10.90196230	     45.00000000	    -16.04567962	     33.68543251	    -60.20567158	     53.02657400	     51.70615194	    -44.50147745	      6.92574030	      2.60269679	     26.10388430	    -37.14577232	    -45.00000000	      7.92095640	    -45.00000000	      4.28796640	     67.64100542	     25.27539026	      5.52849667	     19.29820352	     16.26966572	     46.66370499	     -1.27039548
      1.52000000	     23.99700984	     51.09313751	     -4.67758621	      0.03983825	      1.01255049	     -0.06689623	    -26.33641141	     18.09680738	    -18.58069478	     10.73477262	     45.00000000	    -16.10807882	     32.90118500	    -60.41752208	     53.19697069	     50.69358761	    -45.90639229	      6.71475416	      2.61581739	     25.90742356	    -36.34167844	    -45.00000000	      7.22121295	    -45.00000000	      4.97657004	     67.23861472	     26.52584466	      3.89087023	     18.88804601	     23.48979601	     47.20770303	     -7.40337131
      1.53000000	     24.03298199	     51.19877871	     -5.21442070	      0.04050364	      1.01314818	     -0.06683652	    -26.51675356	     17.71542974	    -18.65016006	     10.41471995	     45.00000000	    -16.18787763	     32.18940103	    -59.82508340	     52.94206718	     49.61917772	    -46.36868391	      6.63724601	      2.77034921	     26.00492025	    -36.74128133	    -45.00000000	      7.56794233	    -45.00000000	      4.63589626	     68.32029902	     25.89902222	      4.05170383	     19.81616513	     24.82663239	     47.71859213	     -6.84700560
      1.54000000	     24.18979934	     51.36416104	     -5.30004921	      0.04085493	      1.01316464	     -0.06701358	    -26.37075019	     17.74927346	    -18.41778124	     10.45585386	     45.00000000	    -16.12798042	     31.92555679	    -59.81793375	     53.10003496	     48.87085932	    -46.56293803	      6.46440268	      2.79631016	     26.04509432	    -36.90695520	    -45.00000000	      7.71235167	    -45.00000000	      4.49488684	     68.37538653	     25.83008271	      3.83656035	     19.64924526	     25.32604761	     48.00961813	     -6.71336369
      1.55000000	     23.76039261	     51.53119157	     -5.01212841	      0.04143975	      1.01336354	     -0.06666127	    -26.42294259	     17.84369001	    -18.56843896	     10.52563295	     45.00000000	    -16.14792835	     30.36740855	    -59.18883035	     53.01253234	     47.18832600	    -48.46514387	      7.36733400	      3.49714936	     26.06394868	    -36.98361001	    -45.00000000	      7.77920583	    -45.00000000	      4.42545404	     68.82765775	     25.19496721	      3.87858240	     20.72654712	     27.52265296	     49.06057850	     -6.88938143
      1.56000000	     23.91228646	     51.64151394	     -4.97795440	      0.04163794	      1.01265788	     -0.06657259	    -25.98300786	     18.48931357	    -18.21977697	     11.08124077	     45.00000000	    -15.95051218	     28.68561050	    -59.07904871	     52.59952776	     46.16259232	    -52.50394230	      8.27363825	      2.95348933	     26.06662345	    -36.99452271	    -45.00000000	      7.78855831	    -45.00000000	      4.41539763	     68.67283863	     25.47574680	      4.32266221	     20.32954976	     30.97152549	     49.47185797	     -9.13322219
      1.57000000	     23.88258219	     51.74761653	     -5.09836330	      0.04218190	      1.01273532	     -0.06667115	    -26.00054040	     18.29846474	    -18.12422221	     10.92786915	     45.00000000	    -15.96447230	     28.45991370	    -59.01506642	     52.75271310	     45.60292605	    -52.68372067	      8.00170994	      3.01313916	     26.07989094	    -37.04819335	    -45.00000000	      7.83560817	    -45.00000000	      4.36904656	     68.87448017	     25.34595435	      3.98364317	     20.27490418	     31.26236794	     49.54291497	     -9.06825177
      1.58000000	     23.65850540	     51.87692599	     -4.85246641	      0.04249271	      1.01258089	     -0.06676147	    -25.88506138	     18.54332644	    -18.08264392	     11.13424645	     45.00000000	    -15.90964791	     27.23795491	    -58.48519967	     53.67878051	     44.08179869	    -56.56430502	      9.40770359	      3.60251173	     26.07033924	    -37.00894910	    -45.00000000	      7.80136161	    -45.00000000	      4.40426502	     68.88439963	     25.17433588	      3.84003292	     20.39852388	     32.88180251	     50.14561833	    -10.02580177
